
<svg width="281px" height="343px" viewBox="0 0 281 343" version="1.1" xmlns="http://www.w3.org/2000/svg" xmlns:xlink="http://www.w3.org/1999/xlink">
    <g id="Page-1" stroke="none" stroke-width="1" fill="none" fill-rule="evenodd">
        <g id="512x512-(Android)" transform="translate(-120, -115)">
            <g id="syncArt" transform="translate(120, 115)">
                <polygon id="Path" stroke="#000000" stroke-width="6" fill="#D9D9D9" fill-rule="nonzero" points="24 206 135.999675 12 248 206"></polygon>
                <path d="M0.180148593,32.9677329 C1.67279142,33.9845365 3.10538911,34.6961559 4.47794166,35.1028513 C5.86764997,35.5095467 7.22303359,35.7129595 8.54411887,35.7129595 C9.7107892,35.7129595 10.6973241,35.577351 11.5037236,35.3062641 C12.3099913,35.0181285 12.953398,34.6538596 13.4338118,34.213197 C13.931355,33.755746 14.2830348,33.2474092 14.4889829,32.6881867 C14.7120604,32.1120457 14.8235333,31.5359047 14.8235333,30.9596336 C14.8235333,30.0276829 14.6090205,29.180455 14.1801266,28.4178198 C13.7512328,27.6553146 13.1850402,26.9266466 12.4815489,26.2318156 C11.7953187,25.5371147 11.0061804,24.8677917 10.1140021,24.2238464 C9.23896644,23.5799012 8.33823665,22.910448 7.41176006,22.2157471 C6.48529664,21.5209161 5.5759758,20.7922481 4.68382388,20.029743 C3.79167197,19.2501892 2.99387671,18.394502 2.29045127,17.4625513 C1.60416841,16.513552 1.04656687,15.4713705 0.617646671,14.3360071 C0.205882224,13.1837251 0,11.8958346 0,10.4724656 C0,8.84568397 0.283096293,7.38834786 0.849262526,6.10045734 C1.43259769,4.79564829 2.23039295,3.69412187 3.24264832,2.79600824 C4.25490368,1.89789461 5.45588552,1.21161398 6.84559382,0.73714033 C8.23528895,0.245709105 9.74510071,0 11.3749896,0 C12.6789323,0 13.982875,0.144041757 15.2868177,0.432112258 C16.5906286,0.703251214 17.7230138,1.0760445 18.6838415,1.55054419 L18.6581474,7.44756272 C17.4227222,6.65122055 16.2560783,6.08353881 15.1580837,5.74451751 C14.0600891,5.40562635 12.9705274,5.23618077 11.8896622,5.23618077 C10.9289663,5.23618077 10.0881763,5.36333002 9.36764777,5.61749839 C8.66420915,5.87166676 8.07230929,6.21901719 7.59190865,6.65967981 C7.12867694,7.10021229 6.77695763,7.6170083 6.5367639,8.21019797 C6.31372592,8.78633897 6.20220034,9.4133657 6.20220034,10.091148 C6.20220034,11.0739844 6.40809574,11.9636388 6.81986019,12.7601111 C7.24878039,13.5395348 7.80636875,14.2766621 8.49265161,14.9714931 C9.19607705,15.6661939 9.99383279,16.3356471 10.8860111,16.9795924 C11.7781893,17.606489 12.6789323,18.2588935 13.5882399,18.936806 C14.514677,19.6145883 15.4239847,20.3263378 16.3161629,21.0719244 C17.2083412,21.817511 17.9974795,22.6478203 18.6838415,23.5628525 C19.387201,24.4610963 19.9448289,25.4693105 20.3565933,26.5877554 C20.7854872,27.7060702 21,28.968583 21,30.3750333 C21,31.9510594 20.7168378,33.3913469 20.150777,34.6961559 C19.6017138,36.000965 18.803879,37.1194099 17.7574044,38.0514907 C16.7279274,38.9834414 15.4669399,39.7121095 13.9743103,40.2374949 C12.49881,40.7458316 10.8431875,41 9.00735058,41 C8.2524447,41 7.47181837,40.9491143 6.66544523,40.8474729 C5.85907209,40.7627502 5.06127682,40.6356009 4.27205944,40.4661553 C3.5,40.2967097 2.75368298,40.0934271 2.03308861,39.8561773 C1.32966317,39.6020089 0.703438617,39.3138733 0.154414962,38.9919007 L0.180148593,32.9677329 Z" id="Path" fill="#000000" fill-rule="nonzero"></path>
                <g id="Group" transform="translate(34, 44)" stroke="#000000" stroke-width="5">
                    <line x1="0" y1="0" x2="102" y2="102" id="Path"></line>
                    <line x1="204" y1="1" x2="102" y2="103" id="Path"></line>
                    <polyline id="Path" points="102.5 240 102.5 127.493221 102.5 99"></polyline>
                </g>
                <polygon id="Path" fill="#000000" fill-rule="nonzero" points="254 0 259.231973 0 273.431 25.359601 275.158085 29.993609 275.463706 29.993609 274.777034 22.1260811 274.777034 0 281 0 281 40 275.818747 40 261.315399 14.7167786 259.866625 11.2539504 259.562304 11.2539504 260.222966 20.5729382 260.222966 40 254 40"></polygon>
                <path d="M139.296361,343 C136.889461,343 134.685632,342.58536 132.686175,341.756079 C130.686717,340.926798 128.96583,339.66598 127.524814,337.972323 C126.100721,336.279967 124.991647,334.139175 124.194988,331.549948 C123.398329,328.96072 123,325.90616 123,322.384967 C123,318.881971 123.372295,315.852107 124.118186,313.296674 C124.864078,310.724345 125.914574,308.60045 127.270977,306.924991 C128.62738,305.249532 130.254542,304.01341 132.152465,303.217925 C134.050388,302.405542 136.160492,302 138.482779,302 C139.330206,302 140.169822,302.050693 141.000325,302.152078 C141.830829,302.236566 142.610566,302.363948 143.339535,302.532923 C144.085426,302.685001 144.754515,302.879973 145.348104,303.116539 C145.957314,303.336208 146.457178,303.581872 146.847698,303.852233 L146.847698,310.047142 C145.780279,309.082681 144.58529,308.380782 143.262733,307.940145 C141.957097,307.482611 140.592884,307.255144 139.170093,307.255144 C137.712155,307.255144 136.372675,307.542402 135.152953,308.11822 C133.948853,308.675839 132.915279,309.564911 132.05093,310.784136 C131.186581,312.002061 130.51619,313.567035 130.04236,315.48036 C129.567229,317.375487 129.330314,319.660559 129.330314,322.334274 C129.330314,325.026186 129.576341,327.343753 130.067093,329.290873 C130.559147,331.236693 131.271194,332.836763 132.203233,334.088482 C133.135271,335.341502 134.26257,336.263069 135.585128,336.855784 C136.906384,337.448499 138.398167,337.744856 140.059174,337.744856 C141.280197,337.744856 142.499919,337.575881 143.720942,337.236629 C144.940663,336.88178 146.034116,336.279967 147,335.433789 L147,341.12047 C146.169496,341.662492 145.102077,342.110928 143.796442,342.467077 C142.492108,342.821926 140.991213,343 139.296361,343 Z" id="Path" fill="#000000" fill-rule="nonzero"></path>
                <path d="M58,217.151943 C58.9638345,217.118178 59.8417421,217.093503 60.6335908,217.076621 C61.4253072,217.042856 62.1912456,217.025973 62.931406,217.025973 C63.6888839,217.009091 64.437637,217 65.1777973,217 C65.9179577,217 66.7182668,217 67.5789891,217 C70.436254,217 72.8546312,217.305185 74.8341206,217.912957 C76.8309276,218.522029 78.4488634,219.367456 79.6881924,220.449239 C80.9275215,221.515438 81.8226145,222.782929 82.3734715,224.25431 C82.9415138,225.725691 83.2254689,227.332132 83.2254689,229.073634 C83.2254689,231.744976 82.5713676,234.078666 81.2631649,236.074705 C79.9722797,238.052563 77.9582874,239.531736 75.2214522,240.513522 L84,256.974027 L77.0288236,256.974027 L69.050585,241.679718 C68.7408518,241.696601 68.4223938,241.713483 68.0953432,241.730366 C67.7682925,241.730366 67.4326491,241.730366 67.0884131,241.730366 C66.1933201,241.730366 65.2810417,241.705691 64.351578,241.655044 L64.351578,257 L58,257 L58,217.151943 Z M64.351578,236.327944 C65.0055471,236.412357 65.6338704,236.479887 66.2362835,236.530535 C66.8388288,236.5643 67.4154638,236.581182 67.9661886,236.581182 C69.6531302,236.581182 71.07317,236.395474 72.22644,236.024058 C73.3797101,235.651342 74.3091738,235.144865 75.0149635,234.502029 C75.7206209,233.84231 76.2283823,233.073504 76.5382476,232.193013 C76.8481129,231.313821 77.0030456,230.376189 77.0030456,229.37752 C77.0030456,228.31262 76.8309276,227.339924 76.4865593,226.460732 C76.1423233,225.564657 75.5830058,224.795851 74.8083425,224.153015 C74.0338114,223.510178 73.0268814,223.011493 71.7875523,222.656959 C70.5654086,222.284244 69.0679025,222.089445 67.2949018,222.072563 C66.8302361,222.072563 66.3568454,222.081653 65.8748621,222.098536 C65.3928788,222.115418 64.8851174,222.141392 64.351578,222.175157 L64.351578,236.327944 Z" id="Shape" fill="#000000" fill-rule="nonzero"></path>
                <polygon id="Path" fill="#000000" fill-rule="nonzero" points="203.41338 222.144049 194 222.144049 194 217 219 217 219 222.144049 209.61253 222.144049 209.61253 257 203.41338 257"></polygon>
            </g>
        </g>
    </g>
</svg>